<svg aria-hidden="true" class="w-5 h-5 text-yellow-400" fill="currentColor" viewBox="0 0 20 20" xmlns="http://www.w3.org/2000/svg">
    <path d="M9.049 2.927c.3-.921 1.603-.921 1.902 0l1.615 4.945a1 1 0 00.95.69h5.197c.969 0 1.371 1.24.588 1.81l-4.197 3.07a1 1 0 00-.364 1.118l1.615 4.945c.3.921-.755 1.688-1.538 1.118l-4.197-3.07a1 1 0 00-1.176 0l-4.197 3.07c-.783.57-1.838-.197-1.538-1.118l1.615-4.945a1 1 0 00-.364-1.118l-4.197-3.07c-.783-.57-.381-1.81.588-1.81h5.197a1 1 0 00.95-.69l1.615-4.945z"></path>
</svg>