<?xml version="1.0" encoding="UTF-8"?>
<!DOCTYPE svg PUBLIC "-//W3C//DTD SVG 1.1//EN" "http://www.w3.org/Graphics/SVG/1.1/DTD/svg11.dtd">
<svg xmlns="http://www.w3.org/2000/svg" version="1.1" width="3264px" height="968px" style="shape-rendering:geometricPrecision; text-rendering:geometricPrecision; image-rendering:optimizeQuality; fill-rule:evenodd; clip-rule:evenodd" xmlns:xlink="http://www.w3.org/1999/xlink">
<g><path style="opacity:0.943" fill="#fefffe" d="M 305.5,94.5 C 315.448,93.2835 324.782,95.1169 333.5,100C 378.763,126.393 424.096,152.393 469.5,178C 482.289,190.317 486.123,205.151 481,222.5C 471.876,245.618 455.043,255.118 430.5,251C 381.776,224.468 333.443,197.135 285.5,169C 269.268,153.387 266.435,135.554 277,115.5C 283.775,104.706 293.275,97.7058 305.5,94.5 Z"/></g>
<g><path style="opacity:0.954" fill="#fefffe" d="M 285.5,176.5 C 288.271,176.421 290.937,176.921 293.5,178C 334.13,201.886 375.13,225.22 416.5,248C 418.397,249.265 419.73,250.931 420.5,253C 388.669,311.829 355.669,369.996 321.5,427.5C 319.058,426.964 316.725,426.131 314.5,425C 273.06,401.108 231.393,377.442 189.5,354C 187.365,350.926 187.531,347.759 190,344.5C 222.084,288.667 253.918,232.667 285.5,176.5 Z"/></g>
<g><path style="opacity:0.974" fill="#fefffe" d="M 1392.5,252.5 C 1474.17,252.5 1555.83,252.5 1637.5,252.5C 1637.5,412.167 1637.5,571.833 1637.5,731.5C 1604.93,731.829 1572.43,731.496 1540,730.5C 1539.5,602.834 1539.33,475.167 1539.5,347.5C 1488.16,347.129 1436.82,347.629 1385.5,349C 1328.39,355.098 1288.56,384.598 1266,437.5C 1243,501.653 1256.5,556.82 1306.5,603C 1325.97,620.17 1348.63,630.837 1374.5,635C 1381.15,635.787 1387.82,636.453 1394.5,637C 1424.5,637.5 1454.5,637.667 1484.5,637.5C 1484.5,668.833 1484.5,700.167 1484.5,731.5C 1450.5,731.667 1416.5,731.5 1382.5,731C 1302.71,725.203 1240.54,689.37 1196,623.5C 1154.47,556.17 1146.13,484.836 1171,409.5C 1194.29,349.75 1234.46,305.25 1291.5,276C 1323.64,261.046 1357.31,253.213 1392.5,252.5 Z"/></g>
<g><path style="opacity:0.967" fill="#fefffe" d="M 633.5,253.5 C 670.168,253.333 706.835,253.5 743.5,254C 788.667,308.5 833.833,363 879,417.5C 924.619,363.092 970.119,308.592 1015.5,254C 1052.5,253.5 1089.5,253.333 1126.5,253.5C 1126.65,254.552 1126.48,255.552 1126,256.5C 1063.59,334.985 1001.43,413.651 939.5,492.5C 1001.64,571.81 1063.98,650.977 1126.5,730C 1126.17,730.333 1125.83,730.667 1125.5,731C 1088.83,731.667 1052.17,731.667 1015.5,731C 970,676.167 924.5,621.333 879,566.5C 834.211,621.624 789.044,676.458 743.5,731C 706.835,731.5 670.168,731.667 633.5,731.5C 633.954,728.86 635.121,726.527 637,724.5C 698.61,647.563 759.443,570.063 819.5,492C 759.062,414.557 698.228,337.39 637,260.5C 635.121,258.473 633.954,256.14 633.5,253.5 Z"/></g>
<g><path style="opacity:0.972" fill="#fefffe" d="M 1902.5,253.5 C 2011.25,249.432 2090.41,295.432 2140,391.5C 2149.3,413.06 2155.96,435.393 2160,458.5C 2161.09,479.818 2161.76,501.152 2162,522.5C 2162.5,592.166 2162.67,661.833 2162.5,731.5C 2129.83,731.5 2097.17,731.5 2064.5,731.5C 2064.67,655.833 2064.5,580.166 2064,504.5C 2064.79,472.426 2057.46,442.426 2042,414.5C 1997.64,354.048 1939.81,335.548 1868.5,359C 1833.31,375.525 1807.47,401.359 1791,436.5C 1784.21,456.258 1780.54,476.591 1780,497.5C 1779.5,575.499 1779.33,653.499 1779.5,731.5C 1746.93,731.829 1714.43,731.496 1682,730.5C 1681.33,647.833 1681.33,565.167 1682,482.5C 1688.05,394.193 1728.89,327.36 1804.5,282C 1835.48,266.279 1868.15,256.779 1902.5,253.5 Z"/></g>
<g><path style="opacity:0.971" fill="#fefffe" d="M 2422.5,253.5 C 2507.58,247.642 2578.08,276.642 2634,340.5C 2683.71,407.057 2698.04,480.724 2677,561.5C 2654.37,628.925 2611.21,678.425 2547.5,710C 2491.63,734.139 2434.3,738.139 2375.5,722C 2301.14,697.642 2249.31,649.142 2220,576.5C 2196.35,507.278 2201.35,440.278 2235,375.5C 2277.68,304.565 2340.18,263.898 2422.5,253.5 Z M 2445.5,346.5 C 2506.97,351.481 2550.8,381.814 2577,437.5C 2600.41,506.244 2584.25,563.744 2528.5,610C 2477.78,644.429 2425.78,646.429 2372.5,616C 2320.33,580.138 2298.16,530.638 2306,467.5C 2315.81,418.036 2343.31,382.203 2388.5,360C 2406.77,351.846 2425.77,347.346 2445.5,346.5 Z"/></g>
<g><path style="opacity:0.968" fill="#fefffe" d="M 2950.5,253.5 C 3048.15,249.147 3123.65,287.48 3177,368.5C 3195.51,400.362 3206.18,434.695 3209,471.5C 3210.46,558.152 3210.96,644.818 3210.5,731.5C 3177.83,731.5 3145.17,731.5 3112.5,731.5C 3112.67,651.166 3112.5,570.833 3112,490.5C 3107.58,423.433 3074.08,377.933 3011.5,354C 2969.07,341.485 2929.4,347.485 2892.5,372C 2860.85,393.743 2841.02,423.576 2833,461.5C 2831.01,471.411 2829.68,481.411 2829,491.5C 2828.5,571.499 2828.33,651.499 2828.5,731.5C 2795.59,731.829 2762.76,731.496 2730,730.5C 2729.33,657.167 2729.33,583.833 2730,510.5C 2726.97,412.039 2766.8,336.872 2849.5,285C 2880.96,267.121 2914.63,256.621 2950.5,253.5 Z"/></g>
<g><path style="opacity:0.943" fill="#fefffe" d="M 393.5,310.5 C 404.426,315.296 415.092,320.63 425.5,326.5C 508.162,372.167 591.162,417.333 674.5,462C 684.669,468.848 690.835,478.348 693,490.5C 695.391,514.907 685.225,531.407 662.5,540C 651.089,542.685 640.089,541.685 629.5,537C 539.213,483.519 448.88,430.019 358.5,376.5C 357.276,374.102 357.442,371.769 359,369.5C 370.512,349.806 382.012,330.139 393.5,310.5 Z"/></g>
<g><path style="opacity:0.936" fill="#fefffe" d="M 163.5,350.5 C 171.467,350.371 178.967,352.038 186,355.5C 231.21,381.68 276.71,407.513 322.5,433C 341.893,452.194 343.226,472.694 326.5,494.5C 314.613,506.624 300.28,510.791 283.5,507C 234.744,480.454 186.411,453.121 138.5,425C 121.969,407.695 120.136,388.862 133,368.5C 140.61,358.035 150.777,352.035 163.5,350.5 Z"/></g>
<g><path style="opacity:0.964" fill="#fefffe" d="M 1873.5,483.5 C 1905.83,483.5 1938.17,483.5 1970.5,483.5C 1970.5,566.167 1970.5,648.833 1970.5,731.5C 1938.17,731.5 1905.83,731.5 1873.5,731.5C 1873.5,648.833 1873.5,566.167 1873.5,483.5 Z"/></g>
<g><path style="opacity:0.938" fill="#fefffe" d="M 150.5,574.5 C 222.834,574.333 295.167,574.5 367.5,575C 388.222,580.388 400.722,593.555 405,614.5C 405.667,625.167 405.667,635.833 405,646.5C 307.903,647.665 210.737,647.832 113.5,647C 112.198,642.418 111.531,637.585 111.5,632.5C 109.16,602.439 122.16,583.106 150.5,574.5 Z"/></g>
<g><path style="opacity:0.957" fill="#fefffe" d="M 99.5,651.5 C 207.536,651.011 315.536,651.511 423.5,653C 442.13,659.98 451.964,673.48 453,693.5C 453.667,705.5 453.667,717.5 453,729.5C 452.727,731.101 452.227,732.601 451.5,734C 323.167,734.667 194.833,734.667 66.5,734C 66,733.5 65.5,733 65,732.5C 64.3333,716.833 64.3333,701.167 65,685.5C 69.8213,667.177 81.3213,655.844 99.5,651.5 Z"/></g>
</svg>
